<svg version="1.0" xmlns="http://www.w3.org/2000/svg"
 width="200.000000pt" height="200.000000pt" viewBox="0 0 200.000000 200.000000"
 preserveAspectRatio="xMidYMid meet">

<g transform="translate(0.000000,200.000000) scale(0.100000,-0.100000)"
fill="#1E90FF" stroke="none">
<path d="M886 1535 c-377 -270 -736 -533 -761 -556 -40 -39 -41 -92 -1 -125
41 -36 74 -30 160 26 l76 50 0 -313 c0 -267 2 -316 16 -335 l15 -22 608 0
c584 0 610 1 632 19 l24 19 5 316 5 316 63 -55 c72 -63 104 -69 148 -31 37 31
39 86 4 120 -22 21 -723 537 -819 603 -54 37 -88 31 -175 -32z m-258 -517 c8
-8 12 -62 12 -175 l0 -163 380 0 380 0 0 103 c0 106 7 127 42 127 33 0 38 -34
38 -264 l0 -226 -40 0 -40 0 0 70 0 70 -380 0 -380 0 0 -70 0 -70 -40 0 -40 0
0 293 c0 301 2 317 40 317 9 0 21 -5 28 -12z m183 -37 c36 -37 38 -79 5 -117
-50 -58 -146 -21 -146 55 1 82 84 119 141 62z m110 -51 c16 -9 19 -22 19 -88
0 -117 -6 -122 -139 -122 -113 0 -131 6 -131 46 0 29 17 34 111 34 l79 0 0 60
c0 46 4 61 18 69 21 13 20 13 43 1z m417 -26 c20 -14 22 -24 22 -100 l0 -84
-190 0 -190 0 0 100 0 100 168 0 c135 0 172 -3 190 -16z"/>
</g>
</svg>